<mxfile host="app.diagrams.net" modified="2024-01-30T10:23:53.069Z" agent="Mozilla/5.0 (Windows NT 10.0; Win64; x64; rv:109.0) Gecko/20100101 Firefox/114.0" version="23.0.2" etag="-lmh78dYtk6uowVz_Sx8" type="github">
  <diagram name="Page-1" id="3wKpedYHF3izsttjAIj8">
    <mxGraphModel>
      <root>
        <mxCell id="0" />
        <mxCell id="1" parent="0" />
      </root>
    </mxGraphModel>
  </diagram>
</mxfile>
